Coordinates
version=1
nRows=12
nColumns=33
inDegrees=yes

Units are S.I. units (second, meters, Newtons, ...)
Angles are in degrees.

endheader
time	ground_thorax_rot_x	ground_thorax_rot_y	ground_thorax_rot_z	ground_thorax_tx	ground_thorax_ty	ground_thorax_tz	clav_prot_r	clav_elev_r	scapula_abduction_r	scapula_elevation_r	scapula_upward_rot_r	scapula_winging_r	shoulder_elv_r	plane_of_elev_r	axial_rot_r	elbow_flexion_r	pro_sup_r	wrist_flex_r	wrist_dev_r	clav_prot_l	clav_elev_l	scapula_abduction_l	scapula_elevation_l	scapula_upward_rot_l	scapula_winging_l	shoulder_elv_l	plane_of_elev_l	axial_rot_l	elbow_flexion_l	pro_sup_l	wrist_flex_l	wrist_dev_l	
4.1000	2.237472	3.251749	11.656448	-0.118161	1.035310	0.028692	3.716232	11.811271	16.481273	7.656297	22.678255	-9.997168	8.813863	-73.992815	53.944598	51.934312	-25.702992	70.000000	-25.000000	11.188694	-3.902469	-17.200973	-22.522327	-45.012270	-0.609629	63.136028	-39.387385	-6.400508	67.986781	24.681253	0.793579	-25.000000	
4.1100	2.219672	3.338587	11.721818	-0.118475	1.035093	0.028676	3.574241	11.708085	16.231185	7.577565	22.661869	-9.919004	8.775406	-73.922151	53.970190	51.847601	-25.807405	70.000000	-25.000000	11.210783	-3.964514	-17.236845	-22.457223	-45.002687	-0.584356	62.889619	-39.379984	-6.298997	67.602362	24.774505	0.430984	-25.000000	
4.1200	2.178918	3.473450	11.801530	-0.118776	1.034933	0.028703	3.377612	11.592440	15.869020	7.494317	22.632826	-9.806244	8.750783	-73.822026	54.003433	51.757934	-25.959396	70.000000	-25.000000	11.287707	-4.015676	-17.364136	-22.392212	-44.976904	-0.516307	62.593367	-39.315175	-6.156072	67.160395	24.930935	-0.183961	-25.000000	
4.1300	2.117194	3.633188	11.875714	-0.119091	1.034718	0.028746	3.165047	11.485443	15.463155	7.422954	22.592627	-9.680177	8.758152	-73.685941	54.022376	51.722306	-26.125185	70.000000	-25.000000	11.406596	-4.050092	-17.570946	-22.347652	-44.966482	-0.416793	62.317158	-39.178148	-6.004969	66.786622	25.128450	-0.951920	-24.999999	
4.1400	2.037508	3.816054	11.952137	-0.119395	1.034479	0.028811	2.939617	11.382822	15.019099	7.360546	22.538711	-9.541745	8.793287	-73.530336	54.028911	51.735552	-26.295252	69.999999	-25.000000	11.556722	-4.076491	-17.833799	-22.310030	-44.958205	-0.293390	62.060345	-38.990321	-5.833551	66.464354	25.353991	-1.839243	-24.999999	
4.1500	1.958740	3.988088	12.029072	-0.119673	1.034221	0.028883	2.740860	11.290750	14.615588	7.309387	22.476150	-9.414411	8.853186	-73.381673	54.009251	51.790442	-26.434841	69.999999	-25.000000	11.692165	-4.111346	-18.069759	-22.263787	-44.946498	-0.180581	61.865453	-38.789801	-5.655850	66.216599	25.555801	-2.648628	-24.999999	
4.1600	1.883959	4.152525	12.102631	-0.119910	1.033939	0.028963	2.574702	11.208990	14.258511	7.271427	22.398107	-9.298651	8.938313	-73.252113	53.970080	51.894074	-26.534827	69.999997	-25.000000	11.810726	-4.156157	-18.274179	-22.206645	-44.929209	-0.079990	61.734882	-38.588870	-5.476012	66.049541	25.727785	-3.368385	-24.999998	
4.1700	1.828347	4.283330	12.170187	-0.120100	1.033646	0.029036	2.467890	11.141766	14.003696	7.247162	22.311384	-9.211545	9.044118	-73.162557	53.910468	52.030178	-26.574034	69.999995	-25.000000	11.881619	-4.219516	-18.391254	-22.130458	-44.902537	-0.014994	61.688267	-38.421146	-5.312992	65.967815	25.833795	-3.861049	-24.999996	
4.1800	1.791117	4.397299	12.215959	-0.120235	1.033353	0.029128	2.409368	11.076724	13.806424	7.237833	22.183092	-9.134779	9.215484	-73.107388	53.812868	52.237209	-26.548802	69.999991	-25.000000	11.920965	-4.311164	-18.454474	-22.031764	-44.881823	0.027654	61.724381	-38.277286	-5.158340	65.959110	25.893429	-4.215579	-24.999993	
4.1900	1.768036	4.493112	12.237800	-0.120320	1.033065	0.029233	2.387184	11.018918	13.656111	7.242164	22.030739	-9.068075	9.443146	-73.077910	53.697032	52.497385	-26.473311	69.999984	-25.000000	11.939044	-4.416621	-18.482160	-21.924082	-44.867806	0.054683	61.820728	-38.151168	-5.012989	66.016487	25.914309	-4.467239	-24.999988	
4.2000	1.744400	4.600905	12.235756	-0.120354	1.032788	0.029367	2.368334	10.966535	13.490146	7.259358	21.855074	-8.993493	9.722794	-73.057371	53.586144	52.814697	-26.376924	69.999971	-25.000000	11.975277	-4.519362	-18.544908	-21.822171	-44.863415	0.095512	61.937980	-38.014007	-4.865544	66.118786	25.934548	-4.771957	-24.999978	
4.2100	1.717791	4.702699	12.215658	-0.120347	1.032519	0.029509	2.352202	10.936200	13.341047	7.287184	21.703523	-8.928172	10.007580	-73.044515	53.513099	53.157016	-26.271724	69.999948	-25.000000	12.025801	-4.599637	-18.633185	-21.741595	-44.860703	0.145288	62.059480	-37.872896	-4.725777	66.277262	25.937926	-5.070892	-24.999961	
